<svg xmlns="http://www.w3.org/2000/svg" width="24" height="23.4" viewBox="0 0 24 23.4">
  <path id="Exclusion_1" data-name="Exclusion 1" d="M19.75,23.4H4.25A4.255,4.255,0,0,1,0,19.15V4.25A4.255,4.255,0,0,1,4.25,0h15.5A4.255,4.255,0,0,1,24,4.25v14.9A4.255,4.255,0,0,1,19.75,23.4ZM9.167,13.158h0l5.409,5.293a.819.819,0,0,0,.6.268.8.8,0,0,0,.37-.091l2.827-1.458a.933.933,0,0,0,.485-.829V6.453a.931.931,0,0,0-.487-.829L15.551,4.166a.81.81,0,0,0-.371-.091.82.82,0,0,0-.6.268L9.167,9.637,6.81,7.718a.542.542,0,0,0-.73.035l-.756.737a.643.643,0,0,0,0,.907l2.043,2-2.043,2a.643.643,0,0,0,0,.907l.757.737a.542.542,0,0,0,.73.035l2.356-1.918Zm6.267,1.581h0l-4.1-3.34,4.106-3.342v6.683Z" transform="translate(0 0)" fill="#007acc"/>
</svg>
