<svg role='img' viewBox='0 0 24 24' xmlns='http://www.w3.org/2000/svg' height='36' fill='#CC5023'><title>VS Code</title><path class="st0" d="M16.6,6.4l-2.1-0.6c-0.2,0-0.3-0.1-0.5-0.1c-0.2,0-0.3-0.1-0.5-0.1v12.4l3.1-0.9c0.1,0,0.2-0.1,0.3-0.2 c0.1-0.1,0.1-0.2,0.1-0.3V6.9c0-0.1,0-0.2-0.1-0.3C16.8,6.5,16.7,6.4,16.6,6.4z"/><path class="st0" d="M19.8,0.3H4.2C1.9,0.3,0,2.2,0,4.5v14.9c0,2.3,1.9,4.2,4.2,4.2h15.5c2.3,0,4.2-1.9,4.2-4.2V4.5 C24,2.2,22.1,0.3,19.8,0.3z M18,6.9v9.7c0,0.3-0.1,0.6-0.3,0.9c-0.2,0.3-0.5,0.4-0.8,0.5l-4.3,1.2c-0.1,0-0.1,0-0.2,0 c-0.1,0-0.1,0-0.2,0c-0.2,0-0.3,0-0.5-0.1c-0.1,0-0.3-0.1-0.4-0.2l-2.8-1.6c-0.1-0.1-0.2-0.1-0.2-0.2c-0.1-0.1-0.1-0.2-0.1-0.3 c0-0.2,0.1-0.3,0.2-0.5c0.1-0.1,0.3-0.2,0.5-0.2h3.7V7.3l-2.8,1C9.5,8.3,9.3,8.5,9.2,8.7C9.1,8.9,9,9.1,9,9.3v5.1 c0,0.2-0.1,0.4-0.2,0.6c-0.1,0.2-0.2,0.3-0.4,0.4l-1.3,0.7c-0.1,0.1-0.2,0.1-0.4,0.1c-0.2,0-0.4-0.1-0.5-0.2 C6.1,15.8,6,15.6,6,15.4V8.3C6,8,6.1,7.8,6.2,7.5C6.3,7.3,6.5,7.1,6.8,7l4.7-2.6c0.1-0.1,0.2-0.1,0.3-0.1c0.1,0,0.2,0,0.4,0 c0.1,0,0.2,0,0.2,0c0.1,0,0.1,0,0.2,0.1l4.3,1.2c0.2,0,0.3,0.1,0.4,0.2c0.1,0.1,0.2,0.2,0.3,0.3c0.1,0.1,0.2,0.3,0.2,0.4 C18,6.5,18,6.7,18,6.9L18,6.9z"/></svg>