<svg role='img' viewBox='0 0 24 24' xmlns='http://www.w3.org/2000/svg' height='24' fill='#319FD6'><title>VS Code</title><path d="M19.8,23.7H4.2c-2.3,0-4.2-1.9-4.2-4.2V4.6c0-2.3,1.9-4.2,4.2-4.2h15.5c2.3,0,4.2,1.9,4.2,4.2v14.9 C24,21.8,22.1,23.7,19.8,23.7z M9.2,13.5L9.2,13.5l5.4,5.3c0.2,0.2,0.4,0.3,0.6,0.3c0.1,0,0.3,0,0.4-0.1l2.8-1.5 c0.3-0.2,0.5-0.5,0.5-0.8V6.8c0-0.3-0.2-0.7-0.5-0.8l-2.8-1.5c-0.1-0.1-0.2-0.1-0.4-0.1c-0.2,0-0.4,0.1-0.6,0.3L9.2,9.9L6.8,8 c-0.2-0.2-0.5-0.2-0.7,0L5.3,8.8C5.1,9,5.1,9.4,5.3,9.7l2,2l-2,2c-0.2,0.3-0.2,0.7,0,0.9l0.8,0.7c0.2,0.2,0.5,0.2,0.7,0 C6.8,15.4,9.2,13.5,9.2,13.5z M15.4,15L15.4,15l-4.1-3.3l4.1-3.3L15.4,15L15.4,15z"/></svg>